<?xml version="1.0" encoding="utf-8"?>
<!-- Generator: Adobe Illustrator 25.2.1, SVG Export Plug-In . SVG Version: 6.00 Build 0)  -->
<svg version="1.1" id="Layer_1" xmlns="http://www.w3.org/2000/svg" xmlns:xlink="http://www.w3.org/1999/xlink" x="0px" y="0px"
	 viewBox="0 0 1000 1000" style="enable-background:new 0 0 1000 1000;" xml:space="preserve">
<style type="text/css">
	.st0{fill:#162417;}
</style>
<g>
	<path class="st0" d="M515.66,674.99c-13.73-8.63-31.94-4.48-40.57,9.25c-4.18,6.65-5.52,14.54-3.77,22.2
		c1.75,7.66,6.38,14.19,13.03,18.37c5.48,3.48,8.29,9.86,7.17,16.24l-11.39,64.82h39.76l-11.4-64.81
		c-1.13-6.39,1.69-12.77,7.16-16.25l0.01,0c3.72-2.34,6.92-5.54,9.25-9.25C533.54,701.82,529.39,683.63,515.66,674.99z"/>
	<path class="st0" d="M737.41,411.24h-13.97V307.55c0-123.21-97.21-223.45-216.7-223.45h-13.51
		c-119.48,0-216.69,100.24-216.69,223.45v103.69h-13.97c-23.13,0.03-41.87,18.77-41.9,41.9v190.43
		c0,150.16,125.3,272.33,279.31,272.33c154.01,0,279.31-122.16,279.31-272.33V453.14C779.28,430.01,760.54,411.27,737.41,411.24z
		 M334.96,521.3h-19.28c-10.65,0-19.28-8.63-19.28-19.28s8.63-19.28,19.28-19.28h19.28c10.65,0,19.28,8.63,19.28,19.28
		S345.61,521.3,334.96,521.3z M552.1,804.73c0.38,1.92,0.56,3.93,0.52,5.93c-0.31,15.09-12.69,27.16-27.71,27.16
		c-0.19,0-0.38,0-0.57-0.01h-48.72c-1.96,0.04-3.97-0.14-5.93-0.53c-7.26-1.45-13.53-5.64-17.64-11.79
		c-4.11-6.16-5.58-13.55-4.13-20.81l10.49-59.68c-12.54-11.57-19.73-27.91-19.75-45.01c-0.05-33.83,27.44-61.39,61.27-61.44
		c0.03,0,0.06,0,0.08,0c16.36,0,31.74,6.36,43.32,17.91c11.6,11.57,18.01,26.97,18.03,43.36c0.04,17.17-7.14,33.57-19.76,45.18
		L552.1,804.73z M625.69,411.24H374.31v-88.79c0-74.96,54.36-135.93,121.19-135.93h9c66.83,0,121.19,60.98,121.19,135.93V411.24z
		 M684.09,521.06h-19.04c-10.51,0-19.04-8.52-19.04-19.04c0-10.51,8.52-19.04,19.04-19.04h19.04c10.51,0,19.04,8.52,19.04,19.04
		C703.13,512.53,694.6,521.06,684.09,521.06z"/>
</g>
</svg>
