<?xml version="1.0" encoding="utf-8"?>
<!-- Generator: Adobe Illustrator 25.2.1, SVG Export Plug-In . SVG Version: 6.00 Build 0)  -->
<svg version="1.1" id="Layer_1" xmlns="http://www.w3.org/2000/svg" xmlns:xlink="http://www.w3.org/1999/xlink" x="0px" y="0px"
	 viewBox="0 0 1000 1000" style="enable-background:new 0 0 1000 1000;" xml:space="preserve">
<style type="text/css">
	.st0{fill:#162417;}
</style>
<g>
	<path class="st0" d="M485.7,484.52c-0.04,3.15,1.17,5.7,3.63,7.64c2.46,1.94,6.3,3.35,11.53,4.24v-24.91
		c-4.61,0.62-8.27,2.06-10.98,4.32C487.17,478.08,485.77,480.98,485.7,484.52z"/>
	<path class="st0" d="M126.32,643.22c-2.69-1.94-6.67-3.37-11.93-4.3l0.06,25.08c4.8-0.61,8.63-2.05,11.47-4.3
		c2.84-2.25,4.3-5.24,4.38-8.97C130.34,647.66,129.01,645.16,126.32,643.22z"/>
	<path class="st0" d="M354.45,877.83c-0.04,3.15,1.17,5.7,3.63,7.64c2.46,1.94,6.3,3.35,11.53,4.24V864.8
		c-4.61,0.62-8.27,2.06-10.98,4.32C355.92,871.4,354.53,874.3,354.45,877.83z"/>
	<path class="st0" d="M389.91,921.16c2.84-2.25,4.3-5.24,4.38-8.97c0.04-3.07-1.29-5.58-3.98-7.52c-2.69-1.94-6.67-3.37-11.93-4.3
		l0.06,25.08C383.24,924.84,387.06,923.41,389.91,921.16z"/>
	<path class="st0" d="M90.46,616.38c-0.04,3.15,1.17,5.7,3.63,7.64c2.46,1.94,6.3,3.35,11.53,4.24v-24.91
		c-4.61,0.62-8.27,2.06-10.98,4.32C91.93,609.94,90.54,612.84,90.46,616.38z"/>
	<path class="st0" d="M615.84,90.03c-0.04,3.15,1.17,5.7,3.63,7.64c2.46,1.94,6.3,3.35,11.53,4.24V77
		c-4.61,0.62-8.27,2.06-10.98,4.32C617.31,83.59,615.92,86.49,615.84,90.03z"/>
	<path class="st0" d="M651.3,133.35c2.84-2.25,4.3-5.24,4.38-8.97c0.04-3.07-1.29-5.58-3.98-7.52c-2.69-1.94-6.67-3.37-11.93-4.3
		l0.06,25.08C644.63,137.04,648.45,135.6,651.3,133.35z"/>
	<path class="st0" d="M258.93,249.92c-2.69-1.94-6.67-3.37-11.93-4.3l0.06,25.08c4.8-0.61,8.63-2.05,11.47-4.3
		c2.84-2.25,4.3-5.24,4.38-8.96C262.95,254.36,261.62,251.86,258.93,249.92z"/>
	<path class="st0" d="M223.07,223.08c-0.04,3.15,1.17,5.7,3.63,7.64c2.46,1.94,6.3,3.35,11.53,4.24v-24.91
		c-4.61,0.62-8.27,2.06-10.98,4.32C224.54,216.64,223.15,219.54,223.07,223.08z"/>
	<path class="st0" d="M782.52,790.52c2.84-2.25,4.3-5.24,4.38-8.97c0.04-3.07-1.29-5.58-3.98-7.52c-2.69-1.94-6.67-3.37-11.93-4.3
		l0.06,25.08C775.85,794.2,779.68,792.76,782.52,790.52z"/>
	<path class="st0" d="M913.63,381.33c-2.69-1.94-6.67-3.37-11.93-4.3l0.06,25.08c4.8-0.61,8.63-2.05,11.47-4.3
		c2.84-2.25,4.3-5.24,4.38-8.97C917.64,385.78,916.32,383.27,913.63,381.33z"/>
	<path class="st0" d="M974.69,371.47c0-43.08-34.92-78-78-78c-43.08,0-78,34.92-78,78c0,4.34,0.37,8.6,1.05,12.75l-246.58,82.19
		c-13.01-24.96-39.1-42.02-69.2-42.02c-0.33,0-0.66,0.02-0.99,0.02c-0.87,0-1.74,0.03-2.6,0.07c-0.23,0.01-0.45,0.02-0.68,0.03
		c-1.11,0.06-2.22,0.15-3.33,0.25c-0.21,0.02-0.43,0.04-0.64,0.06c-2.74,0.29-5.48,0.71-8.22,1.22c-0.34,0-0.67,0.17-1.05,0.34
		c-1.09,0.25-2.18,0.52-3.25,0.82c-3.58,0.91-7.12,2.05-10.43,3.43c-0.33,0-0.33,0.33-0.66,0.33c-5.24,2.29-9.83,5.24-14.42,8.52
		L304.59,286.38c9.42-12.87,14.99-28.73,14.99-45.9c0-4.39-0.38-8.68-1.08-12.87l246.76-82.25c4.48,8.5,10.48,16.07,17.64,22.36
		c0.37,0.33,0.75,0.65,1.13,0.98c0.31,0.26,0.61,0.52,0.92,0.77c13.59,11.23,30.94,17.76,49.34,17.76c22.82,0,43.41-9.91,57.7-25.64
		c12.62-13.86,20.32-32.28,20.32-52.5c0-43.08-34.92-78-78-78c-43.08,0-78,34.92-78,78c0,0.04,0,0.07,0,0.11c0,0.02,0,0.04,0,0.06
		c0,1.23,0.03,2.44,0.09,3.63c0.01,0.2,0.02,0.39,0.03,0.58c0.03,0.47,0.07,0.93,0.11,1.4c0.17,2.34,0.44,4.65,0.81,6.92
		l-246.59,82.74c-12.48-23.89-36.98-40.5-65.48-41.76c-1.16-0.07-2.33-0.11-3.49-0.11c-1.33,0-2.64,0.04-3.93,0.12
		c-41.16,2.04-73.9,36.05-73.9,77.71c0,42.97,34.84,77.81,77.81,77.81c0.72,0,1.43-0.03,2.14-0.05c0.52-0.01,1.03-0.02,1.55-0.04
		c0.32-0.01,0.63-0.04,0.95-0.06c11.35-0.62,22.17-3.68,31.93-8.98c0.43-0.23,0.86-0.47,1.29-0.71c0.25-0.14,0.49-0.28,0.74-0.43
		c2.54-1.46,5-3.04,7.35-4.77l153.22,153.22c-9.4,12.88-14.96,28.75-14.96,45.92c0,4.3,0.36,8.52,1.03,12.63l-246.95,82.54
		c-12.97-25.07-39.12-42.21-69.29-42.21c-43.08,0-78,34.92-78,78c0,0.07,0.01,0.14,0.01,0.21c0,0.07-0.01,0.14-0.01,0.21
		c0,42.92,35.06,77.65,77.97,77.65c9.2,0,18.1-1.6,26.43-4.67c6.94-2.5,13.42-5.96,19.3-10.22L309.94,850
		c-0.58,0.8-1.15,1.61-1.7,2.44c-8.46,12.6-13.37,27.42-13.37,43.1c0,42.92,35.06,77.97,77.97,77.97c0.07,0,0.14-0.01,0.2-0.01
		c0.07,0,0.14,0.01,0.21,0.01c43.08,0,78-34.92,78-78s-34.92-78-78-78c-1.96,0-3.91,0.1-5.83,0.24c-0.46,0.03-0.92,0.06-1.37,0.1
		c-0.47,0.04-0.94,0.09-1.41,0.14c-8.82,0.93-17.28,3.35-25.11,7.17c-0.13,0.06-0.25,0.13-0.38,0.19c-0.72,0.35-1.43,0.71-2.13,1.09
		c-3.42,1.8-6.69,3.84-9.79,6.11L173.86,679.19c9.37-12.87,14.91-28.7,14.91-45.84c0-4.25-0.35-8.41-1-12.47l247.1-82.37
		c7.63,14.57,19.73,26.43,34.48,33.76c0.71,0.4,1.42,0.81,2.12,1.21c1.64,0.66,3.6,1.64,5.24,2.29c2.95,0.98,5.57,1.97,8.52,2.62
		c1.64,0.33,2.95,0.98,4.59,0.98c4.59,0.98,9.17,1.31,14.09,1.31c5.24,0,10.48-0.66,15.73-1.64c0.98-0.33,1.64-0.66,2.29-0.66
		c4.26-0.98,8.19-2.29,12.12-3.93c0.33,0,0.33-0.33,0.66-0.33c0.85-0.37,1.68-0.77,2.49-1.17c4.27-2.01,8.33-4.41,12.13-7.14
		L702.59,719.1c-5.12,7.1-9.08,15.1-11.59,23.71c-2.15,7.03-3.31,14.41-3.31,22.01c0,42.92,35.06,77.97,77.97,77.97
		c10.73,0,20.98-2.19,30.3-6.15c28.13-11.78,47.89-39.56,47.89-71.97c0-43.08-34.92-78-78-78c-17.2,0-33.08,5.58-45.97,15
		L566.81,548.59c9.53-12.93,15.17-28.91,15.17-46.2c0-4.21-0.34-8.34-0.99-12.37l246.69-82.23c4.49,8.52,10.51,16.1,17.7,22.39
		c0.34,0.3,0.68,0.59,1.02,0.88c0.32,0.27,0.63,0.54,0.96,0.81c13.6,11.25,30.96,17.78,49.37,17.78c42.92,0,77.97-35.06,77.97-77.97
		c0-0.03,0-0.07,0-0.1C974.69,371.53,974.69,371.5,974.69,371.47z M631,111.42l-1.79-0.23c-7.19-0.88-12.89-3.06-17.09-6.51
		c-4.21-3.46-6.27-8.26-6.2-14.41c0.08-6.34,2.45-11.5,7.12-15.48c4.67-3.98,10.66-6.33,17.96-7.06V56.65h8.76v11.01
		c8.99,0.62,17.28,3.4,24.85,8.36l-4.96,7.96c-6.03-4.07-12.66-6.44-19.89-7.09V103l1.33,0.17c3.54,0.42,6.75,1.13,9.63,2.13
		c2.88,1,5.47,2.31,7.75,3.92c2.29,1.61,4.04,3.67,5.27,6.17c1.23,2.5,1.83,5.34,1.79,8.53c-0.15,6.61-2.6,11.89-7.35,15.83
		c-4.75,3.94-10.87,6.31-18.36,7.12v11.42h-8.76v-11.3c-5.04-0.31-10.06-1.35-15.08-3.11c-5.02-1.77-9.16-3.98-12.42-6.63l5.3-7.78
		c2.42,2.04,5.69,3.85,9.8,5.45c4.11,1.6,8.24,2.57,12.4,2.91L631,111.42z M265.42,272.8c-4.75,3.94-10.87,6.31-18.36,7.12v11.42
		h-8.76v-11.3c-5.04-0.31-10.06-1.35-15.08-3.11c-5.02-1.77-9.16-3.98-12.42-6.63l5.3-7.78c2.42,2.04,5.69,3.85,9.8,5.45
		c4.11,1.6,8.24,2.57,12.4,2.91l-0.06-26.41l-1.79-0.23c-7.19-0.88-12.89-3.06-17.09-6.51c-4.21-3.46-6.27-8.26-6.2-14.41
		c0.08-6.34,2.45-11.5,7.12-15.48c4.67-3.98,10.66-6.33,17.96-7.06V189.7H247v11.01c8.99,0.62,17.28,3.4,24.85,8.36l-4.96,7.96
		c-6.03-4.07-12.66-6.44-19.89-7.09v26.12l1.33,0.17c3.54,0.42,6.75,1.13,9.63,2.13c2.88,1,5.47,2.31,7.75,3.92
		c2.29,1.61,4.04,3.67,5.27,6.17c1.23,2.5,1.83,5.34,1.79,8.53C272.61,263.59,270.16,268.86,265.42,272.8z M132.81,666.1
		c-4.75,3.94-10.87,6.31-18.36,7.12v11.42h-8.76v-11.3c-5.04-0.31-10.06-1.35-15.08-3.11c-5.02-1.77-9.16-3.98-12.42-6.63l5.3-7.78
		c2.42,2.04,5.69,3.85,9.8,5.45c4.11,1.6,8.24,2.57,12.4,2.91l-0.06-26.41l-1.79-0.23c-7.19-0.88-12.89-3.06-17.09-6.51
		c-4.21-3.46-6.27-8.26-6.2-14.41c0.08-6.34,2.45-11.5,7.12-15.48c4.67-3.98,10.66-6.33,17.96-7.06V583h8.76v11.01
		c8.99,0.62,17.28,3.4,24.85,8.36l-4.96,7.96c-6.03-4.07-12.66-6.44-19.89-7.09v26.12l1.33,0.17c3.54,0.42,6.75,1.13,9.63,2.13
		c2.88,1,5.47,2.31,7.75,3.92c2.29,1.61,4.04,3.67,5.27,6.17c1.23,2.5,1.83,5.34,1.79,8.53C140,656.89,137.55,662.16,132.81,666.1z
		 M369.61,899.22l-1.79-0.23c-7.19-0.88-12.89-3.06-17.09-6.51c-4.21-3.46-6.27-8.26-6.2-14.41c0.08-6.34,2.45-11.5,7.12-15.48
		c4.67-3.98,10.66-6.33,17.96-7.06v-11.07h8.76v11.01c8.99,0.62,17.28,3.4,24.85,8.36l-4.96,7.96c-6.03-4.07-12.66-6.44-19.89-7.09
		v26.12l1.33,0.17c3.54,0.42,6.75,1.13,9.63,2.13c2.88,1,5.47,2.31,7.75,3.92c2.29,1.61,4.04,3.67,5.27,6.17
		c1.23,2.5,1.83,5.34,1.79,8.53c-0.15,6.61-2.6,11.89-7.35,15.83c-4.75,3.94-10.87,6.31-18.36,7.12v11.42h-8.76v-11.3
		c-5.04-0.31-10.06-1.35-15.08-3.11c-5.02-1.77-9.16-3.98-12.42-6.63l5.3-7.78c2.42,2.04,5.69,3.85,9.8,5.45
		c4.11,1.6,8.24,2.57,12.4,2.91L369.61,899.22z M528.04,534.25c-4.75,3.94-10.87,6.31-18.36,7.12v11.42h-8.76v-11.3
		c-5.04-0.31-10.06-1.35-15.08-3.11c-5.02-1.77-9.16-3.98-12.42-6.63l5.3-7.78c2.42,2.04,5.69,3.85,9.8,5.45
		c4.11,1.6,8.24,2.57,12.4,2.91l-0.06-26.41l-1.79-0.23c-7.19-0.88-12.89-3.06-17.09-6.51s-6.27-8.26-6.2-14.41
		c0.08-6.34,2.45-11.5,7.12-15.48c4.67-3.98,10.66-6.33,17.96-7.06v-11.07h8.76v11.01c8.99,0.62,17.28,3.4,24.85,8.36l-4.96,7.96
		c-6.03-4.07-12.66-6.44-19.89-7.09v26.12l1.33,0.17c3.54,0.42,6.75,1.13,9.63,2.13c2.88,1,5.47,2.31,7.75,3.92
		c2.29,1.61,4.04,3.67,5.27,6.17c1.23,2.5,1.83,5.34,1.79,8.53C535.24,525.03,532.79,530.31,528.04,534.25z M762.23,768.58
		l-1.79-0.23c-7.19-0.88-12.89-3.06-17.09-6.51c-4.21-3.46-6.27-8.26-6.2-14.41c0.08-6.34,2.45-11.5,7.12-15.48
		c4.67-3.98,10.66-6.33,17.96-7.06v-11.07h8.76v11.01c8.99,0.62,17.28,3.4,24.85,8.36l-4.96,7.96c-6.03-4.07-12.66-6.44-19.89-7.09
		v26.12l1.33,0.17c3.54,0.42,6.75,1.13,9.63,2.13c2.88,1,5.47,2.31,7.75,3.92c2.29,1.61,4.04,3.67,5.27,6.17
		c1.23,2.5,1.83,5.34,1.79,8.53c-0.15,6.61-2.6,11.89-7.35,15.83c-4.75,3.94-10.87,6.31-18.36,7.12v11.42h-8.76v-11.3
		c-5.04-0.31-10.06-1.35-15.08-3.11c-5.02-1.77-9.16-3.98-12.42-6.63l5.3-7.78c2.42,2.04,5.69,3.85,9.8,5.45
		c4.11,1.6,8.24,2.57,12.4,2.91L762.23,768.58z M920.11,404.22c-4.75,3.94-10.87,6.31-18.36,7.12v11.42h-8.76v-11.3
		c-5.04-0.31-10.06-1.35-15.08-3.11c-5.02-1.77-9.16-3.98-12.42-6.63l5.3-7.78c2.42,2.04,5.69,3.85,9.8,5.45
		c4.11,1.6,8.24,2.57,12.4,2.91l-0.06-26.41l-1.79-0.23c-7.19-0.88-12.89-3.06-17.09-6.51c-4.21-3.46-6.27-8.26-6.2-14.41
		c0.08-6.34,2.45-11.5,7.12-15.48c4.67-3.98,10.66-6.33,17.96-7.06v-11.07h8.76v11.01c8.99,0.62,17.28,3.4,24.85,8.36l-4.96,7.96
		c-6.03-4.07-12.66-6.44-19.89-7.09v26.12l1.33,0.17c3.54,0.42,6.75,1.13,9.63,2.13c2.88,1,5.47,2.31,7.75,3.92
		c2.29,1.61,4.04,3.67,5.27,6.17c1.23,2.5,1.83,5.34,1.79,8.53C927.31,395,924.86,400.28,920.11,404.22z"/>
	<path class="st0" d="M747.07,747.19c-0.04,3.15,1.17,5.7,3.63,7.64c2.46,1.94,6.3,3.35,11.53,4.24v-24.91
		c-4.61,0.62-8.27,2.06-10.98,4.32C748.54,740.75,747.14,743.65,747.07,747.19z"/>
	<path class="st0" d="M877.76,354.49c-0.04,3.15,1.17,5.7,3.63,7.64c2.46,1.94,6.3,3.35,11.53,4.24v-24.91
		c-4.61,0.62-8.27,2.06-10.98,4.32C879.23,348.06,877.84,350.96,877.76,354.49z"/>
	<path class="st0" d="M521.56,511.36c-2.69-1.94-6.67-3.37-11.93-4.3l0.06,25.08c4.8-0.61,8.63-2.05,11.47-4.3
		c2.84-2.25,4.3-5.24,4.38-8.96C525.57,515.81,524.25,513.3,521.56,511.36z"/>
</g>
</svg>
