<?xml version="1.0" encoding="utf-8"?>
<!-- Generator: Adobe Illustrator 22.0.0, SVG Export Plug-In . SVG Version: 6.00 Build 0)  -->
<svg version="1.1" id="Layer_1" xmlns="http://www.w3.org/2000/svg" xmlns:xlink="http://www.w3.org/1999/xlink" x="0px" y="0px"
	 viewBox="0 0 1000 1000" style="enable-background:new 0 0 1000 1000;" xml:space="preserve">
<style type="text/css">
	.st0{fill:#142314;}
	.st1{fill:#FFFFFF;}
	.st2{fill:#C4DBC6;}
	.st3{fill:#231F20;}
</style>
<rect class="st0" width="1000" height="1000"/>
<g>
	<path class="st2" d="M527,338.7h24.6c13.2,0,23.9,10.7,23.9,23.9v24.6c0,13.2,10.7,23.9,23.9,23.9h24.6c13.2,0,23.9-10.7,23.9-23.9
		v-24.6c0-13.2-10.7-23.9-23.9-23.9h-24.6c-13.2,0-23.9-10.7-23.9-23.9v-24.6c0-13.2-10.7-23.9-23.9-23.9H527
		c-13.2,0-23.9,10.7-23.9,23.9v24.6C503.1,328,513.8,338.7,527,338.7"/>
	<path class="st2" d="M575.4,441.5v24.6c0,13.2-10.7,23.9-23.9,23.9H527c-13.2,0-23.9,10.7-23.9,23.9v24.6
		c0,13.2,10.7,23.9,23.9,23.9h24.6c13.2,0,23.9-10.7,23.9-23.9v-24.6c0-13.2,10.7-23.9,23.9-23.9h24.6c13.2,0,23.9-10.7,23.9-23.9
		v-24.6c0-13.2-10.7-23.9-23.9-23.9h-24.6C586.1,417.6,575.4,428.3,575.4,441.5"/>
	<path class="st2" d="M424.6,387.1v-24.6c0-13.2,10.7-23.9,23.9-23.9H473c13.2,0,23.9-10.7,23.9-23.9v-24.6
		c0-13.2-10.7-23.9-23.9-23.9h-24.6c-13.2,0-23.9,10.7-23.9,23.9v24.6c0,13.2-10.7,23.9-23.9,23.9h-24.6
		c-13.2,0-23.9,10.7-23.9,23.9v24.6c0,13.2,10.7,23.9,23.9,23.9h24.6C413.9,410.9,424.6,400.3,424.6,387.1"/>
	<path class="st2" d="M473,489.9h-24.6c-13.2,0-23.9-10.7-23.9-23.9v-24.6c0-13.2-10.7-23.9-23.9-23.9h-24.6
		c-13.2,0-23.9,10.7-23.9,23.9V466c0,13.2,10.7,23.9,23.9,23.9h24.6c13.2,0,23.9,10.7,23.9,23.9v24.6c0,13.2,10.7,23.9,23.9,23.9
		H473c13.2,0,23.9-10.7,23.9-23.9v-24.6C496.9,500.6,486.2,489.9,473,489.9"/>
	<polygon class="st2" points="250.9,676.6 239.5,698.2 144.2,698.2 144.2,676.6 128.6,676.6 128.6,733.6 144.2,733.6 144.2,710.7 
		239.2,710.7 250.9,733.6 267.4,733.6 253.2,704.6 267.4,676.6 	"/>
	<polygon class="st2" points="732.3,676.8 732.3,733.6 748,733.6 748,710.7 855.5,710.7 855.5,733.6 871.4,733.6 871.4,676.9 
		855.5,676.9 855.5,698.5 748,698.5 748,676.8 	"/>
	<path class="st2" d="M546.6,693.3c0-1.7,1.4-3.1,3.1-3.1h100.5c1.7,0,3.1,1.4,3.1,3.1v4.9H546.6V693.3z M669.9,698.3v-9.6
		c0-7.9-4.4-11.9-13.2-11.9H531v56.8h15.6v-22.9h94.5l12.3,22.9h16.4l-12.3-22.9h-0.1C664.3,710.7,669.9,705.1,669.9,698.3"/>
	<path class="st2" d="M453,698.2l-107.6,0v-4.9c0-1.7,1.4-3.1,3.1-3.1h101.4c1.7,0,3.1,1.4,3.1,3.1V698.2z M456.2,676.8h-114
		c-6.9,0-12.4,5.6-12.4,12.4v44.4h15.6v-22.9H453v22.9h15.6v-44.4C468.6,682.4,463.1,676.8,456.2,676.8"/>
</g>
</svg>
