<?xml version="1.0" encoding="utf-8"?>
<!-- Generator: Adobe Illustrator 25.2.1, SVG Export Plug-In . SVG Version: 6.00 Build 0)  -->
<svg version="1.1" id="Layer_1" xmlns="http://www.w3.org/2000/svg" xmlns:xlink="http://www.w3.org/1999/xlink" x="0px" y="0px"
	 viewBox="0 0 1000 1000" style="enable-background:new 0 0 1000 1000;" xml:space="preserve">
<style type="text/css">
	.st0{fill:#162417;}
	.st1{fill:none;stroke:#162417;stroke-width:34;stroke-miterlimit:10;}
</style>
<path class="st0" d="M890.7,564.86l0-129.47l-70.88,0c-63.78,0-92.17-71.37-47.92-115.63l50.19-50.21l-91.5-91.5l-50.2,50.19
	c-43.69,43.7-115.57,10.17-115.57-47.93l0-71.03l-129.43,0l0,71.01c0,55.84-74.57,88.68-115.51,47.89l-50.33-50.33l-91.5,91.51
	l50.31,50.31c43.7,43.7,13.56,115.44-47.92,115.44l-71.16,0l0,129.47l71.12,0c66.05,0,98.28,65.02,47.81,115.48l-50.34,50.35
	l91.51,91.51l50.28-50.28c40.9-40.9,115.48-12.33,115.48,47.99l0,71.05l129.44,0l0.01-70.98c0-62.67,67.41-96.04,115.6-47.84
	l50.23,50.23l91.5-91.52l-50.17-50.16c-45.42-45.42-20.26-115.6,48.01-115.6l70.92,0V564.86z M500.12,654.93
	c-85.57,0-154.91-69.35-154.91-154.92c0-85.59,69.35-154.95,154.91-154.95c85.57,0,154.92,69.35,154.92,154.95
	C655.04,585.59,585.69,654.93,500.12,654.93z"/>
</svg>
