<?xml version="1.0" encoding="utf-8"?>
<!-- Generator: Adobe Illustrator 25.2.1, SVG Export Plug-In . SVG Version: 6.00 Build 0)  -->
<svg version="1.1" id="Layer_1" xmlns="http://www.w3.org/2000/svg" xmlns:xlink="http://www.w3.org/1999/xlink" x="0px" y="0px"
	 viewBox="0 0 1000 1000" style="enable-background:new 0 0 1000 1000;" xml:space="preserve">
<style type="text/css">
	.st0{fill:#162417;}
	.st1{fill:none;stroke:#162417;stroke-width:34;stroke-miterlimit:10;}
</style>
<path class="st0" d="M867.8,115.86L867.8,115.86c-1.49-11.5-10.97-20.29-22.56-20.91c-36.79-1.81-74.83,5.79-109.96,21.99
	c-35.06,16.17-67.5,41.02-93.8,71.86c-53.58,62.8-78.52,144.1-68.44,223.04l0.03,0.2c-4.48,10.97-8.56,22.51-12.17,34.46
	c-12.75-25.43-29.92-48.75-51.16-69.45c-25.5-24.85-56.21-44.89-88.8-57.96c-32.71-13.11-67.58-19.3-100.81-17.89
	c-12.08,0.5-21.94,9.95-22.93,22c-5.31,64.96,21.92,131.76,74.71,183.3c46.74,45.51,108.56,72.9,170.31,75.63
	c0.12,29.09,2.38,57.43,6.89,86.49l0.05,0.29c4.94,22.79,9.7,62.22,6.85,98.37c-4.36,55.45-24.04,75.73-39.83,83
	c-8.12,3.73-23.25,10.67-41.82,5.51c-23.59-6.54-45.18-30.48-64.18-71.14c-18.26-39.04-33.92-62.86-62.13-73.87l12.86-37.99
	c3.34-9.86,2.63-20.42-1.98-29.75c-4.61-9.33-12.58-16.3-22.43-19.64l-76.37-25.84c-9.86-3.34-20.43-2.63-29.76,1.98
	c-8.88,4.39-15.63,11.83-19.13,21.05l-29.54-10c-8.52-2.88-17.8,1.7-20.69,10.23l-4.92,14.52c-2.88,8.52,1.7,17.8,10.23,20.69
	l29.5,9.98l-9.87,29.16l-29.5-9.99c-8.52-2.88-17.8,1.7-20.69,10.23l-4.92,14.52c-1.4,4.13-1.1,8.55,0.83,12.46
	c1.93,3.91,5.27,6.83,9.4,8.23l29.51,9.99c-2.91,9.52-2.09,19.63,2.35,28.6c4.61,9.33,12.58,16.3,22.43,19.64l76.39,25.85
	c20.34,6.88,42.5-4.06,49.39-24.41l11.52-34.05c11.41,5.69,19.59,17.79,34.07,48.75c16.85,36.07,36.8,62.8,59.3,79.47
	c18.69,13.83,39.19,20.85,60.95,20.85c16.28,0,32.87-3.86,49.32-11.48c23.05-10.62,40.56-29.45,52.06-55.96
	c9.08-20.94,14.43-46.74,15.9-76.67c2.52-51.3-7.28-98.02-7.97-101.2c-13.23-85.18-6.82-161.66,19.07-227.41
	c68.5-2.69,135.43-36.72,184.09-93.73C853.06,275.97,877.97,194.68,867.8,115.86z"/>
</svg>
